<svg xmlns="http://www.w3.org/2000/svg" viewBox="0 0 1200 800">
  <defs>
    <linearGradient id="bgGrad" x1="0%" y1="0%" x2="100%" y2="100%">
      <stop offset="0%" style="stop-color:#0f172a"/>
      <stop offset="100%" style="stop-color:#1e293b"/>
    </linearGradient>
    <linearGradient id="cardGrad" x1="0%" y1="0%" x2="0%" y2="100%">
      <stop offset="0%" style="stop-color:#1e293b"/>
      <stop offset="100%" style="stop-color:#0f172a"/>
    </linearGradient>
    <filter id="shadow" x="-20%" y="-20%" width="140%" height="140%">
      <feDropShadow dx="0" dy="4" stdDeviation="8" flood-color="#000" flood-opacity="0.3"/>
    </filter>
  </defs>
  
  <!-- Background -->
  <rect width="1200" height="800" fill="url(#bgGrad)"/>
  
  <!-- Sidebar (collapsed) -->
  <rect x="0" y="0" width="60" height="800" fill="#0f172a"/>
  <rect x="59" y="0" width="1" height="800" fill="#334155"/>
  
  <!-- Sidebar Icons -->
  <text x="30" y="45" font-family="system-ui" font-size="20" text-anchor="middle">🎯</text>
  <text x="30" y="100" font-family="system-ui" font-size="18" text-anchor="middle">📊</text>
  <text x="30" y="150" font-family="system-ui" font-size="18" text-anchor="middle">📅</text>
  <text x="30" y="200" font-family="system-ui" font-size="18" text-anchor="middle">❤️</text>
  <rect x="8" y="225" width="44" height="44" rx="8" fill="#8b5cf6" fill-opacity="0.2"/>
  <text x="30" y="255" font-family="system-ui" font-size="18" text-anchor="middle">📋</text>
  <text x="30" y="305" font-family="system-ui" font-size="18" text-anchor="middle">⚙️</text>
  
  <!-- Header -->
  <rect x="60" y="0" width="1140" height="64" fill="#0f172a"/>
  <rect x="60" y="63" width="1140" height="1" fill="#334155"/>
  
  <text x="92" y="38" font-family="system-ui" font-size="13" fill="#64748b">Home / </text>
  <text x="140" y="38" font-family="system-ui" font-size="13" fill="#f8fafc">Audit Log</text>
  
  <!-- Main Content -->
  <g transform="translate(84, 88)">
    <!-- Page Title -->
    <text x="0" y="28" font-family="system-ui" font-size="24" font-weight="bold" fill="#f8fafc">Audit Log</text>
    <text x="0" y="52" font-family="system-ui" font-size="14" fill="#64748b">Complete activity history for compliance and troubleshooting</text>
    
    <!-- Export Button -->
    <rect x="880" y="8" width="130" height="40" rx="8" fill="#3b82f6"/>
    <text x="945" y="34" font-family="system-ui" font-size="13" fill="#fff" text-anchor="middle">📤 Export</text>
    
    <!-- Filter Bar -->
    <g transform="translate(0, 75)">
      <rect x="0" y="0" width="1010" height="60" rx="10" fill="url(#cardGrad)" filter="url(#shadow)"/>
      <rect x="0" y="0" width="1010" height="60" rx="10" stroke="#334155" fill="none"/>
      
      <!-- Search -->
      <rect x="20" y="12" width="250" height="36" rx="6" fill="#0f172a" stroke="#334155"/>
      <text x="40" y="36" font-family="system-ui" font-size="14" fill="#64748b">🔍 Search activities...</text>
      
      <!-- Date Range -->
      <rect x="290" y="12" width="180" height="36" rx="6" fill="#0f172a" stroke="#334155"/>
      <text x="310" y="36" font-family="system-ui" font-size="13" fill="#94a3b8">📅 Dec 1 - Dec 5</text>
      <text x="450" y="36" font-family="system-ui" font-size="12" fill="#64748b">▼</text>
      
      <!-- User Filter -->
      <rect x="490" y="12" width="150" height="36" rx="6" fill="#0f172a" stroke="#334155"/>
      <text x="510" y="36" font-family="system-ui" font-size="13" fill="#94a3b8">All Users</text>
      <text x="620" y="36" font-family="system-ui" font-size="12" fill="#64748b">▼</text>
      
      <!-- Action Filter -->
      <rect x="660" y="12" width="150" height="36" rx="6" fill="#0f172a" stroke="#334155"/>
      <text x="680" y="36" font-family="system-ui" font-size="13" fill="#94a3b8">All Actions</text>
      <text x="790" y="36" font-family="system-ui" font-size="12" fill="#64748b">▼</text>
      
      <!-- Clear Button -->
      <rect x="830" y="12" width="80" height="36" rx="6" fill="#1e293b" stroke="#334155"/>
      <text x="870" y="36" font-family="system-ui" font-size="13" fill="#94a3b8" text-anchor="middle">Clear</text>
      
      <!-- Filter Presets -->
      <rect x="920" y="12" width="70" height="36" rx="6" fill="#8b5cf6" fill-opacity="0.2"/>
      <text x="955" y="36" font-family="system-ui" font-size="13" fill="#8b5cf6" text-anchor="middle">💾</text>
    </g>
    
    <!-- Stats Cards -->
    <g transform="translate(0, 155)">
      <rect x="0" y="0" width="200" height="70" rx="10" fill="url(#cardGrad)" filter="url(#shadow)"/>
      <rect x="0" y="0" width="200" height="70" rx="10" stroke="#334155" fill="none"/>
      <text x="20" y="25" font-family="system-ui" font-size="11" fill="#64748b">Total Actions</text>
      <text x="20" y="52" font-family="system-ui" font-size="22" font-weight="bold" fill="#f8fafc">1,847</text>
      <text x="90" y="52" font-family="system-ui" font-size="11" fill="#22c55e">↑ 12% this week</text>
      
      <rect x="220" y="0" width="200" height="70" rx="10" fill="url(#cardGrad)" filter="url(#shadow)"/>
      <rect x="220" y="0" width="200" height="70" rx="10" stroke="#334155" fill="none"/>
      <text x="240" y="25" font-family="system-ui" font-size="11" fill="#64748b">Create Actions</text>
      <text x="240" y="52" font-family="system-ui" font-size="22" font-weight="bold" fill="#22c55e">423</text>
      
      <rect x="440" y="0" width="200" height="70" rx="10" fill="url(#cardGrad)" filter="url(#shadow)"/>
      <rect x="440" y="0" width="200" height="70" rx="10" stroke="#334155" fill="none"/>
      <text x="460" y="25" font-family="system-ui" font-size="11" fill="#64748b">Update Actions</text>
      <text x="460" y="52" font-family="system-ui" font-size="22" font-weight="bold" fill="#3b82f6">892</text>
      
      <rect x="660" y="0" width="200" height="70" rx="10" fill="url(#cardGrad)" filter="url(#shadow)"/>
      <rect x="660" y="0" width="200" height="70" rx="10" stroke="#334155" fill="none"/>
      <text x="680" y="25" font-family="system-ui" font-size="11" fill="#64748b">Delete Actions</text>
      <text x="680" y="52" font-family="system-ui" font-size="22" font-weight="bold" fill="#ef4444">156</text>
      
      <rect x="880" y="0" width="130" height="70" rx="10" fill="url(#cardGrad)" filter="url(#shadow)"/>
      <rect x="880" y="0" width="130" height="70" rx="10" stroke="#334155" fill="none"/>
      <text x="900" y="25" font-family="system-ui" font-size="11" fill="#64748b">Login Events</text>
      <text x="900" y="52" font-family="system-ui" font-size="22" font-weight="bold" fill="#f59e0b">376</text>
    </g>
    
    <!-- Audit Log Table -->
    <g transform="translate(0, 245)">
      <rect x="0" y="0" width="1010" height="390" rx="12" fill="url(#cardGrad)" filter="url(#shadow)"/>
      <rect x="0" y="0" width="1010" height="390" rx="12" stroke="#334155" fill="none"/>
      
      <!-- Table Header -->
      <rect x="0" y="0" width="1010" height="50" rx="12" fill="#0f172a"/>
      <text x="30" y="32" font-family="system-ui" font-size="12" font-weight="600" fill="#64748b">TIMESTAMP</text>
      <text x="180" y="32" font-family="system-ui" font-size="12" font-weight="600" fill="#64748b">USER</text>
      <text x="350" y="32" font-family="system-ui" font-size="12" font-weight="600" fill="#64748b">ACTION</text>
      <text x="480" y="32" font-family="system-ui" font-size="12" font-weight="600" fill="#64748b">RESOURCE</text>
      <text x="650" y="32" font-family="system-ui" font-size="12" font-weight="600" fill="#64748b">DETAILS</text>
      <text x="920" y="32" font-family="system-ui" font-size="12" font-weight="600" fill="#64748b">IP ADDRESS</text>
      
      <!-- Row 1 -->
      <rect x="0" y="50" width="1010" height="55" fill="#1e293b" fill-opacity="0.5"/>
      <text x="30" y="82" font-family="system-ui" font-size="12" fill="#94a3b8">Dec 5, 2024</text>
      <text x="30" y="96" font-family="system-ui" font-size="11" fill="#64748b">10:45:23 AM</text>
      <circle cx="192" cy="82" r="14" fill="#3b82f6"/>
      <text x="192" y="87" font-family="system-ui" font-size="10" fill="#fff" text-anchor="middle">JD</text>
      <text x="215" y="87" font-family="system-ui" font-size="13" fill="#f8fafc">John Doe</text>
      <rect x="350" y="70" width="70" height="24" rx="12" fill="#22c55e" fill-opacity="0.2"/>
      <text x="385" y="87" font-family="system-ui" font-size="11" fill="#22c55e" text-anchor="middle">CREATE</text>
      <text x="480" y="87" font-family="system-ui" font-size="13" fill="#f8fafc">Release</text>
      <text x="650" y="87" font-family="system-ui" font-size="12" fill="#94a3b8">Created release v3.1.0</text>
      <text x="920" y="87" font-family="system-ui" font-size="12" fill="#64748b">192.168.1.1</text>
      
      <!-- Row 2 -->
      <text x="30" y="137" font-family="system-ui" font-size="12" fill="#94a3b8">Dec 5, 2024</text>
      <text x="30" y="151" font-family="system-ui" font-size="11" fill="#64748b">10:32:15 AM</text>
      <circle cx="192" cy="137" r="14" fill="#22c55e"/>
      <text x="192" y="142" font-family="system-ui" font-size="10" fill="#fff" text-anchor="middle">JS</text>
      <text x="215" y="142" font-family="system-ui" font-size="13" fill="#f8fafc">Jane Smith</text>
      <rect x="350" y="125" width="70" height="24" rx="12" fill="#3b82f6" fill-opacity="0.2"/>
      <text x="385" y="142" font-family="system-ui" font-size="11" fill="#3b82f6" text-anchor="middle">UPDATE</text>
      <text x="480" y="142" font-family="system-ui" font-size="13" fill="#f8fafc">User</text>
      <text x="650" y="142" font-family="system-ui" font-size="12" fill="#94a3b8">Updated role for user mike@nexus.dev</text>
      <text x="920" y="142" font-family="system-ui" font-size="12" fill="#64748b">10.0.0.15</text>
      
      <!-- Row 3 -->
      <rect x="0" y="160" width="1010" height="55" fill="#1e293b" fill-opacity="0.5"/>
      <text x="30" y="192" font-family="system-ui" font-size="12" fill="#94a3b8">Dec 5, 2024</text>
      <text x="30" y="206" font-family="system-ui" font-size="11" fill="#64748b">10:15:47 AM</text>
      <circle cx="192" cy="192" r="14" fill="#f59e0b"/>
      <text x="192" y="197" font-family="system-ui" font-size="10" fill="#fff" text-anchor="middle">SY</text>
      <text x="215" y="197" font-family="system-ui" font-size="13" fill="#f8fafc">System</text>
      <rect x="350" y="180" width="70" height="24" rx="12" fill="#f59e0b" fill-opacity="0.2"/>
      <text x="385" y="197" font-family="system-ui" font-size="11" fill="#f59e0b" text-anchor="middle">LOGIN</text>
      <text x="480" y="197" font-family="system-ui" font-size="13" fill="#f8fafc">Session</text>
      <text x="650" y="197" font-family="system-ui" font-size="12" fill="#94a3b8">User admin@nexus.dev logged in via SSO</text>
      <text x="920" y="197" font-family="system-ui" font-size="12" fill="#64748b">172.16.0.50</text>
      
      <!-- Row 4 -->
      <text x="30" y="247" font-family="system-ui" font-size="12" fill="#94a3b8">Dec 5, 2024</text>
      <text x="30" y="261" font-family="system-ui" font-size="11" fill="#64748b">09:58:12 AM</text>
      <circle cx="192" cy="247" r="14" fill="#8b5cf6"/>
      <text x="192" y="252" font-family="system-ui" font-size="10" fill="#fff" text-anchor="middle">AU</text>
      <text x="215" y="252" font-family="system-ui" font-size="13" fill="#f8fafc">Admin User</text>
      <rect x="350" y="235" width="70" height="24" rx="12" fill="#ef4444" fill-opacity="0.2"/>
      <text x="385" y="252" font-family="system-ui" font-size="11" fill="#ef4444" text-anchor="middle">DELETE</text>
      <text x="480" y="252" font-family="system-ui" font-size="13" fill="#f8fafc">Role</text>
      <text x="650" y="252" font-family="system-ui" font-size="12" fill="#94a3b8">Deleted custom role "Tester"</text>
      <text x="920" y="252" font-family="system-ui" font-size="12" fill="#64748b">192.168.1.1</text>
      
      <!-- Row 5 -->
      <rect x="0" y="270" width="1010" height="55" fill="#1e293b" fill-opacity="0.5"/>
      <text x="30" y="302" font-family="system-ui" font-size="12" fill="#94a3b8">Dec 5, 2024</text>
      <text x="30" y="316" font-family="system-ui" font-size="11" fill="#64748b">09:45:33 AM</text>
      <circle cx="192" cy="302" r="14" fill="#3b82f6"/>
      <text x="192" y="307" font-family="system-ui" font-size="10" fill="#fff" text-anchor="middle">JD</text>
      <text x="215" y="307" font-family="system-ui" font-size="13" fill="#f8fafc">John Doe</text>
      <rect x="350" y="290" width="70" height="24" rx="12" fill="#3b82f6" fill-opacity="0.2"/>
      <text x="385" y="307" font-family="system-ui" font-size="11" fill="#3b82f6" text-anchor="middle">UPDATE</text>
      <text x="480" y="307" font-family="system-ui" font-size="13" fill="#f8fafc">Config</text>
      <text x="650" y="307" font-family="system-ui" font-size="12" fill="#94a3b8">Changed system mode to Live</text>
      <text x="920" y="307" font-family="system-ui" font-size="12" fill="#64748b">192.168.1.1</text>
      
      <!-- Pagination -->
      <g transform="translate(0, 340)">
        <text x="30" y="28" font-family="system-ui" font-size="12" fill="#64748b">Showing 1-5 of 1,847 entries</text>
        <rect x="780" y="8" width="32" height="32" rx="6" fill="#1e293b" stroke="#334155"/>
        <text x="796" y="30" font-family="system-ui" font-size="14" fill="#64748b" text-anchor="middle">‹</text>
        <rect x="820" y="8" width="32" height="32" rx="6" fill="#3b82f6"/>
        <text x="836" y="30" font-family="system-ui" font-size="14" fill="#fff" text-anchor="middle">1</text>
        <rect x="860" y="8" width="32" height="32" rx="6" fill="#1e293b" stroke="#334155"/>
        <text x="876" y="30" font-family="system-ui" font-size="14" fill="#64748b" text-anchor="middle">2</text>
        <rect x="900" y="8" width="32" height="32" rx="6" fill="#1e293b" stroke="#334155"/>
        <text x="916" y="30" font-family="system-ui" font-size="14" fill="#64748b" text-anchor="middle">3</text>
        <text x="948" y="30" font-family="system-ui" font-size="14" fill="#64748b">...</text>
        <rect x="970" y="8" width="32" height="32" rx="6" fill="#1e293b" stroke="#334155"/>
        <text x="986" y="30" font-family="system-ui" font-size="14" fill="#64748b" text-anchor="middle">›</text>
      </g>
    </g>
  </g>
</svg>

